<?xml version="1.0" standalone="no"?>
<!DOCTYPE svg PUBLIC "-//W3C//DTD SVG 20010904//EN"
 "http://www.w3.org/TR/2001/REC-SVG-20010904/DTD/svg10.dtd">
<svg version="1.0" xmlns="http://www.w3.org/2000/svg"
 width="500.000000pt" height="500.000000pt" viewBox="0 0 500.000000 500.000000"
 preserveAspectRatio="xMidYMid meet">
<metadata>
Created by potrace 1.14, written by Peter Selinger 2001-2017
</metadata>
<g transform="translate(0.000000,500.000000) scale(0.100000,-0.100000)"
fill="#000000" stroke="none">
<path d="M2418 4425 c-2 -1 -41 -5 -88 -9 -762 -56 -1431 -590 -1667 -1330
-24 -77 -28 -92 -39 -151 -2 -16 -9 -46 -14 -65 -20 -83 -37 -282 -34 -405 4
-123 11 -187 40 -335 8 -41 16 -86 19 -99 8 -43 56 -185 81 -239 13 -29 24
-57 24 -62 0 -11 88 -172 98 -180 4 -3 8 -11 10 -19 3 -17 83 -135 94 -139 4
-2 8 -10 8 -18 0 -8 4 -14 8 -14 4 0 15 -12 24 -27 42 -70 218 -246 333 -334
66 -50 211 -149 219 -149 3 0 27 -13 53 -28 26 -15 77 -40 113 -56 36 -16 79
-35 97 -43 17 -8 37 -16 45 -17 7 -2 20 -6 28 -9 75 -28 259 -72 345 -82 33
-4 89 -10 125 -14 160 -19 391 -1 589 45 58 14 110 29 116 34 7 5 14 8 17 5 5
-6 96 24 155 51 121 54 243 117 243 125 0 6 4 8 9 5 5 -3 14 1 21 9 7 8 19 15
26 15 8 0 14 4 14 8 0 5 10 13 23 19 62 28 271 205 259 218 -4 5 -2 5 4 2 13
-8 67 46 57 57 -5 4 -3 6 2 4 24 -8 231 254 218 277 -4 5 -2 7 2 2 8 -7 85
114 85 134 0 5 5 9 10 9 6 0 9 3 8 8 0 4 17 46 40 94 33 70 99 248 103 280 0
4 7 36 16 70 16 69 29 143 40 228 9 69 9 363 0 410 -3 19 -9 60 -12 90 -3 30
-10 71 -15 90 -5 19 -11 49 -14 66 -9 49 -62 213 -95 293 -40 95 -106 218
-167 311 -27 40 -54 81 -60 92 -6 10 -14 15 -17 11 -4 -3 -7 0 -7 7 0 38 -320
360 -358 360 -7 0 -12 4 -12 9 0 5 -30 28 -67 52 -38 24 -70 46 -73 49 -9 9
-103 60 -165 89 -159 76 -261 115 -276 105 -5 -3 -9 -1 -9 4 0 6 -17 13 -37
17 -21 5 -42 9 -48 11 -45 13 -213 44 -270 49 -71 7 -272 14 -277 10z m287
-370 c17 -4 39 -8 50 -10 83 -11 238 -53 305 -82 19 -9 51 -22 70 -30 19 -8
42 -17 50 -22 68 -35 116 -64 188 -112 260 -177 449 -409 568 -699 41 -101 98
-315 87 -332 -2 -5 -1 -8 4 -8 4 0 8 -12 9 -27 0 -16 4 -59 8 -98 11 -116 8
-215 -11 -335 -3 -19 -6 -48 -8 -65 -5 -47 -56 -237 -72 -268 -7 -15 -11 -32
-8 -37 3 -6 2 -10 -4 -10 -6 0 -14 -12 -17 -27 -7 -27 -16 -44 -89 -178 -38
-68 -130 -192 -196 -263 -24 -25 -43 -50 -41 -54 1 -4 -2 -7 -7 -6 -5 2 -31
-17 -57 -42 -27 -25 -86 -73 -131 -105 -46 -33 -83 -63 -83 -68 0 -4 -5 -5
-11 -1 -6 3 -14 2 -18 -3 -9 -14 -137 -78 -221 -111 -75 -30 -199 -66 -261
-77 -18 -3 -35 -8 -39 -10 -16 -10 -157 -20 -285 -19 -143 0 -186 4 -310 28
-38 8 -73 12 -77 9 -5 -2 -8 0 -8 5 0 8 -21 15 -84 28 -10 3 -40 14 -65 25
-25 12 -50 22 -56 23 -5 2 -23 9 -40 16 -16 7 -36 14 -44 16 -8 1 -17 6 -20
11 -3 4 -21 16 -39 26 -17 9 -47 25 -64 35 -18 9 -35 20 -38 23 -3 3 -36 27
-75 54 -68 48 -305 278 -305 297 0 5 -11 19 -25 32 -14 13 -25 28 -25 33 0 5
-9 18 -19 30 -55 58 -188 358 -207 463 -3 14 -7 32 -9 40 -3 8 -7 33 -11 55
-3 22 -8 43 -10 46 -17 28 -23 332 -10 439 5 36 10 76 11 90 4 39 53 219 76
280 12 30 37 89 57 130 19 41 35 78 34 83 -1 4 2 7 6 7 5 0 14 12 21 26 15 34
125 185 151 209 11 10 17 22 14 26 -3 5 -1 9 4 9 14 0 130 118 123 125 -3 4
-1 5 5 3 14 -4 84 58 76 68 -4 4 -2 4 5 1 6 -4 17 -1 25 6 7 7 42 33 78 57 36
24 68 48 72 54 4 6 8 7 8 3 0 -4 19 3 43 17 49 29 224 103 259 110 12 2 37 10
53 16 17 7 37 14 45 15 14 1 55 9 110 20 14 3 48 8 75 11 28 4 51 8 53 9 6 6
328 -4 357 -10z"/>
<path d="M3130 3178 c-35 -15 -140 -114 -462 -435 l-417 -417 -164 165 c-186
186 -191 190 -233 207 -82 34 -187 10 -240 -55 -45 -53 -64 -172 -34 -208 6
-7 7 -15 3 -18 -9 -10 516 -535 562 -563 22 -13 63 -26 91 -28 97 -10 102 -6
645 537 293 293 504 512 515 534 24 48 24 136 1 185 -45 96 -167 139 -267 96z"/>
</g>
</svg>
