<?xml version="1.0" standalone="no"?>
<!DOCTYPE svg PUBLIC "-//W3C//DTD SVG 20010904//EN"
 "http://www.w3.org/TR/2001/REC-SVG-20010904/DTD/svg10.dtd">
<svg version="1.0" xmlns="http://www.w3.org/2000/svg"
 width="192.000000pt" height="192.000000pt" viewBox="0 0 192.000000 192.000000"
 preserveAspectRatio="xMidYMid meet">
<metadata>
Created by potrace 1.14, written by Peter Selinger 2001-2017
</metadata>
<g transform="translate(0.000000,192.000000) scale(0.100000,-0.100000)"
fill="#000000" stroke="none">
<path d="M899 1836 c-2 -2 -29 -7 -59 -10 -30 -3 -73 -11 -95 -16 -22 -6 -51
-13 -63 -16 -42 -9 -175 -80 -242 -130 -77 -56 -137 -117 -195 -199 -41 -58
-113 -197 -120 -233 -1 -9 -8 -35 -14 -58 -6 -22 -13 -56 -15 -75 -3 -19 -5
-34 -6 -34 -7 0 -6 -125 1 -185 10 -88 13 -105 35 -178 83 -286 362 -542 649
-593 39 -7 73 -18 77 -23 5 -7 8 -7 8 1 0 9 7 10 24 4 32 -13 120 -8 251 14
244 41 512 251 617 485 30 65 47 110 43 110 -3 0 0 11 5 26 19 48 38 195 35
258 -5 82 -16 155 -29 200 -8 25 -12 46 -10 46 2 0 -12 34 -30 75 -72 156
-169 276 -298 369 -60 42 -194 111 -237 121 -9 3 -36 9 -61 15 -74 18 -260 36
-271 26z"/>
</g>
</svg>
